<svg width="75" height="36" viewBox="0 0 75 36" fill="none" xmlns="http://www.w3.org/2000/svg">
<g clip-path="url(#clip0_629_133)">
<rect width="75" height="36" fill="#9B111E"/>
<path d="M3.95117 3.20312H6.20996L8.82031 11.957L11.4219 3.20312H13.417L9.77832 16H7.85352L3.95117 3.20312ZM3.03711 3.20312H5.19043L5.52441 11.6406V16H3.03711V3.20312ZM12.4326 3.20312H14.5947V16H12.1162V11.6406L12.4326 3.20312ZM20.7646 13.8115V9.41699C20.7646 9.12988 20.7295 8.90137 20.6592 8.73145C20.5947 8.56152 20.4951 8.43848 20.3604 8.3623C20.2314 8.28027 20.0732 8.23926 19.8857 8.23926C19.6748 8.23926 19.499 8.2832 19.3584 8.37109C19.2178 8.45898 19.1123 8.58496 19.042 8.74902C18.9775 8.91309 18.9453 9.10938 18.9453 9.33789H16.4756C16.4756 8.92773 16.5547 8.54102 16.7129 8.17773C16.8711 7.80859 17.1025 7.48633 17.4072 7.21094C17.7178 6.92969 18.0869 6.70996 18.5146 6.55176C18.9424 6.39355 19.4229 6.31445 19.9561 6.31445C20.5889 6.31445 21.1514 6.42285 21.6436 6.63965C22.1357 6.85059 22.5254 7.1875 22.8125 7.65039C23.0996 8.11328 23.2432 8.71387 23.2432 9.45215V13.6885C23.2432 14.2217 23.2695 14.6553 23.3223 14.9893C23.3809 15.3232 23.4658 15.6104 23.5771 15.8506V16H21.0986C20.9873 15.7363 20.9023 15.4082 20.8438 15.0156C20.791 14.6172 20.7646 14.2158 20.7646 13.8115ZM21.0635 10.1904L21.0723 11.667H20.167C19.9326 11.667 19.7275 11.7051 19.5518 11.7812C19.3818 11.8574 19.2383 11.9658 19.1211 12.1064C19.0039 12.2412 18.916 12.3994 18.8574 12.5811C18.8047 12.7627 18.7783 12.9561 18.7783 13.1611C18.7783 13.3896 18.8105 13.583 18.875 13.7412C18.9395 13.8994 19.0361 14.0195 19.165 14.1016C19.2939 14.1836 19.4463 14.2246 19.6221 14.2246C19.8916 14.2246 20.126 14.1689 20.3252 14.0576C20.5244 13.9463 20.6709 13.8115 20.7646 13.6533C20.8643 13.4951 20.8965 13.3486 20.8613 13.2139L21.4238 14.1719C21.3535 14.3887 21.2568 14.6143 21.1338 14.8486C21.0166 15.083 20.8672 15.2998 20.6855 15.499C20.5039 15.6982 20.2783 15.8623 20.0088 15.9912C19.7451 16.1143 19.4316 16.1758 19.0684 16.1758C18.5586 16.1758 18.0928 16.0586 17.6709 15.8242C17.249 15.5898 16.915 15.2617 16.6689 14.8398C16.4287 14.418 16.3086 13.917 16.3086 13.3369C16.3086 12.8564 16.3848 12.4229 16.5371 12.0361C16.6953 11.6436 16.9297 11.3125 17.2402 11.043C17.5508 10.7676 17.9434 10.5566 18.418 10.4102C18.8926 10.2637 19.4492 10.1904 20.0879 10.1904H21.0635ZM27.6465 2.5V16H25.1768V2.5H27.6465ZM34.1943 13.7148V6.49023H36.6641V16H34.3438L34.1943 13.7148ZM34.4756 11.7549L35.1611 11.7373C35.1611 12.376 35.0996 12.9678 34.9766 13.5127C34.8535 14.0518 34.6689 14.5205 34.4229 14.9189C34.1826 15.3174 33.875 15.6279 33.5 15.8506C33.1309 16.0674 32.6943 16.1758 32.1904 16.1758C31.8037 16.1758 31.4463 16.1113 31.1182 15.9824C30.7959 15.8477 30.5176 15.6396 30.2832 15.3584C30.0488 15.0713 29.8643 14.7051 29.7295 14.2598C29.6006 13.8086 29.5361 13.2695 29.5361 12.6426V6.49023H32.0059V12.6602C32.0059 12.918 32.0264 13.1406 32.0674 13.3281C32.1143 13.5098 32.1787 13.6592 32.2607 13.7764C32.3486 13.8936 32.4482 13.9785 32.5596 14.0312C32.6709 14.0781 32.7969 14.1016 32.9375 14.1016C33.3242 14.1016 33.6289 14.002 33.8516 13.8027C34.0801 13.5977 34.2412 13.3193 34.335 12.9678C34.4287 12.6104 34.4756 12.2061 34.4756 11.7549ZM40.9355 8.45898V16H38.4658V6.49023H40.7773L40.9355 8.45898ZM40.5928 10.9199L39.9072 10.9375C39.8955 10.2695 39.9541 9.6543 40.083 9.0918C40.2119 8.5293 40.4053 8.04004 40.6631 7.62402C40.9268 7.20801 41.2578 6.88574 41.6562 6.65723C42.0605 6.42871 42.5264 6.31445 43.0537 6.31445C43.3936 6.31445 43.71 6.37891 44.0029 6.50781C44.3018 6.63086 44.5566 6.82715 44.7676 7.09668C44.9844 7.36035 45.1514 7.70605 45.2686 8.13379C45.3857 8.55566 45.4443 9.0625 45.4443 9.6543V16H42.9922V9.95312C42.9922 9.53125 42.9512 9.20898 42.8691 8.98633C42.7871 8.75781 42.6699 8.59961 42.5176 8.51172C42.3652 8.41797 42.1777 8.37109 41.9551 8.37109C41.7207 8.37109 41.5156 8.43555 41.3398 8.56445C41.1641 8.69336 41.0205 8.875 40.9092 9.10938C40.8037 9.33789 40.7217 9.60742 40.6631 9.91797C40.6104 10.2285 40.5869 10.5625 40.5928 10.9199ZM45.2158 10.6738L44.3369 10.7881C44.3193 10.1611 44.3721 9.5752 44.4951 9.03027C44.6182 8.48535 44.8086 8.01074 45.0664 7.60645C45.3242 7.20215 45.6465 6.88574 46.0332 6.65723C46.4258 6.42871 46.8799 6.31445 47.3955 6.31445C47.7822 6.31445 48.1338 6.37891 48.4502 6.50781C48.7666 6.63672 49.0361 6.84473 49.2588 7.13184C49.4873 7.41309 49.6602 7.78516 49.7773 8.24805C49.9004 8.70508 49.9619 9.26758 49.9619 9.93555V16H47.4922V9.94434C47.4922 9.5166 47.4512 9.18848 47.3691 8.95996C47.293 8.73145 47.1787 8.57617 47.0264 8.49414C46.874 8.41211 46.6895 8.37109 46.4727 8.37109C46.2617 8.37109 46.0771 8.42969 45.9189 8.54688C45.7666 8.66406 45.6377 8.82812 45.5322 9.03906C45.4268 9.25 45.3477 9.49316 45.2949 9.76855C45.2422 10.0439 45.2158 10.3457 45.2158 10.6738ZM54.4004 6.49023V16H51.9307V6.49023H54.4004ZM51.8164 4.02051C51.8164 3.63965 51.9365 3.32617 52.1768 3.08008C52.4229 2.83398 52.7539 2.71094 53.1699 2.71094C53.5801 2.71094 53.9053 2.83398 54.1455 3.08008C54.3857 3.32617 54.5059 3.63965 54.5059 4.02051C54.5059 4.40137 54.3857 4.71777 54.1455 4.96973C53.9053 5.21582 53.5801 5.33887 53.1699 5.33887C52.7539 5.33887 52.4229 5.21582 52.1768 4.96973C51.9365 4.71777 51.8164 4.40137 51.8164 4.02051ZM60.5439 13.8115V9.41699C60.5439 9.12988 60.5088 8.90137 60.4385 8.73145C60.374 8.56152 60.2744 8.43848 60.1396 8.3623C60.0107 8.28027 59.8525 8.23926 59.665 8.23926C59.4541 8.23926 59.2783 8.2832 59.1377 8.37109C58.9971 8.45898 58.8916 8.58496 58.8213 8.74902C58.7568 8.91309 58.7246 9.10938 58.7246 9.33789H56.2549C56.2549 8.92773 56.334 8.54102 56.4922 8.17773C56.6504 7.80859 56.8818 7.48633 57.1865 7.21094C57.4971 6.92969 57.8662 6.70996 58.2939 6.55176C58.7217 6.39355 59.2021 6.31445 59.7354 6.31445C60.3682 6.31445 60.9307 6.42285 61.4229 6.63965C61.915 6.85059 62.3047 7.1875 62.5918 7.65039C62.8789 8.11328 63.0225 8.71387 63.0225 9.45215V13.6885C63.0225 14.2217 63.0488 14.6553 63.1016 14.9893C63.1602 15.3232 63.2451 15.6104 63.3564 15.8506V16H60.8779C60.7666 15.7363 60.6816 15.4082 60.623 15.0156C60.5703 14.6172 60.5439 14.2158 60.5439 13.8115ZM60.8428 10.1904L60.8516 11.667H59.9463C59.7119 11.667 59.5068 11.7051 59.3311 11.7812C59.1611 11.8574 59.0176 11.9658 58.9004 12.1064C58.7832 12.2412 58.6953 12.3994 58.6367 12.5811C58.584 12.7627 58.5576 12.9561 58.5576 13.1611C58.5576 13.3896 58.5898 13.583 58.6543 13.7412C58.7188 13.8994 58.8154 14.0195 58.9443 14.1016C59.0732 14.1836 59.2256 14.2246 59.4014 14.2246C59.6709 14.2246 59.9053 14.1689 60.1045 14.0576C60.3037 13.9463 60.4502 13.8115 60.5439 13.6533C60.6436 13.4951 60.6758 13.3486 60.6406 13.2139L61.2031 14.1719C61.1328 14.3887 61.0361 14.6143 60.9131 14.8486C60.7959 15.083 60.6465 15.2998 60.4648 15.499C60.2832 15.6982 60.0576 15.8623 59.7881 15.9912C59.5244 16.1143 59.2109 16.1758 58.8477 16.1758C58.3379 16.1758 57.8721 16.0586 57.4502 15.8242C57.0283 15.5898 56.6943 15.2617 56.4482 14.8398C56.208 14.418 56.0879 13.917 56.0879 13.3369C56.0879 12.8564 56.1641 12.4229 56.3164 12.0361C56.4746 11.6436 56.709 11.3125 57.0195 11.043C57.3301 10.7676 57.7227 10.5566 58.1973 10.4102C58.6719 10.2637 59.2285 10.1904 59.8672 10.1904H60.8428ZM67.2588 8.52051V16H64.7891V6.49023H67.0918L67.2588 8.52051ZM66.8896 10.9199L66.2305 10.9375C66.2188 10.2227 66.2861 9.58105 66.4326 9.0127C66.585 8.44434 66.7988 7.96094 67.0742 7.5625C67.3555 7.1582 67.6895 6.85059 68.0762 6.63965C68.4629 6.42285 68.8994 6.31445 69.3857 6.31445C69.7549 6.31445 70.0918 6.37891 70.3965 6.50781C70.707 6.63672 70.9736 6.8418 71.1963 7.12305C71.4189 7.4043 71.5918 7.77637 71.7148 8.23926C71.8379 8.70215 71.8994 9.27344 71.8994 9.95312V16H69.4297V9.93555C69.4297 9.52539 69.3887 9.20898 69.3066 8.98633C69.2246 8.75781 69.1016 8.59961 68.9375 8.51172C68.7793 8.41797 68.5742 8.37109 68.3223 8.37109C68.0879 8.37109 67.8799 8.43555 67.6982 8.56445C67.5166 8.69336 67.3643 8.875 67.2412 9.10938C67.124 9.33789 67.0332 9.60742 66.9688 9.91797C66.9102 10.2285 66.8838 10.5625 66.8896 10.9199Z" fill="white"/>
<path d="M5.6123 20.2031V33H3.03711V20.2031H5.6123ZM9.62012 25.6436V27.7705H4.96191V25.6436H9.62012ZM10.1123 20.2031V22.3389H4.96191V20.2031H10.1123ZM14.0762 23.4902V33H11.6064V23.4902H14.0762ZM11.4922 21.0205C11.4922 20.6396 11.6123 20.3262 11.8525 20.0801C12.0986 19.834 12.4297 19.7109 12.8457 19.7109C13.2559 19.7109 13.5811 19.834 13.8213 20.0801C14.0615 20.3262 14.1816 20.6396 14.1816 21.0205C14.1816 21.4014 14.0615 21.7178 13.8213 21.9697C13.5811 22.2158 13.2559 22.3389 12.8457 22.3389C12.4297 22.3389 12.0986 22.2158 11.8525 21.9697C11.6123 21.7178 11.4922 21.4014 11.4922 21.0205ZM18.4443 25.5205V33H15.9746V23.4902H18.2773L18.4443 25.5205ZM18.0752 27.9199L17.416 27.9375C17.4043 27.2227 17.4717 26.5811 17.6182 26.0127C17.7705 25.4443 17.9844 24.9609 18.2598 24.5625C18.541 24.1582 18.875 23.8506 19.2617 23.6396C19.6484 23.4229 20.085 23.3145 20.5713 23.3145C20.9404 23.3145 21.2773 23.3789 21.582 23.5078C21.8926 23.6367 22.1592 23.8418 22.3818 24.123C22.6045 24.4043 22.7773 24.7764 22.9004 25.2393C23.0234 25.7021 23.085 26.2734 23.085 26.9531V33H20.6152V26.9355C20.6152 26.5254 20.5742 26.209 20.4922 25.9863C20.4102 25.7578 20.2871 25.5996 20.123 25.5117C19.9648 25.418 19.7598 25.3711 19.5078 25.3711C19.2734 25.3711 19.0654 25.4355 18.8838 25.5645C18.7021 25.6934 18.5498 25.875 18.4268 26.1094C18.3096 26.3379 18.2188 26.6074 18.1543 26.918C18.0957 27.2285 18.0693 27.5625 18.0752 27.9199ZM29.0791 30.8115V26.417C29.0791 26.1299 29.0439 25.9014 28.9736 25.7314C28.9092 25.5615 28.8096 25.4385 28.6748 25.3623C28.5459 25.2803 28.3877 25.2393 28.2002 25.2393C27.9893 25.2393 27.8135 25.2832 27.6729 25.3711C27.5322 25.459 27.4268 25.585 27.3564 25.749C27.292 25.9131 27.2598 26.1094 27.2598 26.3379H24.79C24.79 25.9277 24.8691 25.541 25.0273 25.1777C25.1855 24.8086 25.417 24.4863 25.7217 24.2109C26.0322 23.9297 26.4014 23.71 26.8291 23.5518C27.2568 23.3936 27.7373 23.3145 28.2705 23.3145C28.9033 23.3145 29.4658 23.4229 29.958 23.6396C30.4502 23.8506 30.8398 24.1875 31.127 24.6504C31.4141 25.1133 31.5576 25.7139 31.5576 26.4521V30.6885C31.5576 31.2217 31.584 31.6553 31.6367 31.9893C31.6953 32.3232 31.7803 32.6104 31.8916 32.8506V33H29.4131C29.3018 32.7363 29.2168 32.4082 29.1582 32.0156C29.1055 31.6172 29.0791 31.2158 29.0791 30.8115ZM29.3779 27.1904L29.3867 28.667H28.4814C28.2471 28.667 28.042 28.7051 27.8662 28.7812C27.6963 28.8574 27.5527 28.9658 27.4355 29.1064C27.3184 29.2412 27.2305 29.3994 27.1719 29.5811C27.1191 29.7627 27.0928 29.9561 27.0928 30.1611C27.0928 30.3896 27.125 30.583 27.1895 30.7412C27.2539 30.8994 27.3506 31.0195 27.4795 31.1016C27.6084 31.1836 27.7607 31.2246 27.9365 31.2246C28.2061 31.2246 28.4404 31.1689 28.6396 31.0576C28.8389 30.9463 28.9854 30.8115 29.0791 30.6533C29.1787 30.4951 29.2109 30.3486 29.1758 30.2139L29.7383 31.1719C29.668 31.3887 29.5713 31.6143 29.4482 31.8486C29.3311 32.083 29.1816 32.2998 29 32.499C28.8184 32.6982 28.5928 32.8623 28.3232 32.9912C28.0596 33.1143 27.7461 33.1758 27.3828 33.1758C26.873 33.1758 26.4072 33.0586 25.9854 32.8242C25.5635 32.5898 25.2295 32.2617 24.9834 31.8398C24.7432 31.418 24.623 30.917 24.623 30.3369C24.623 29.8564 24.6992 29.4229 24.8516 29.0361C25.0098 28.6436 25.2441 28.3125 25.5547 28.043C25.8652 27.7676 26.2578 27.5566 26.7324 27.4102C27.207 27.2637 27.7637 27.1904 28.4023 27.1904H29.3779ZM35.7939 25.5205V33H33.3242V23.4902H35.627L35.7939 25.5205ZM35.4248 27.9199L34.7656 27.9375C34.7539 27.2227 34.8213 26.5811 34.9678 26.0127C35.1201 25.4443 35.334 24.9609 35.6094 24.5625C35.8906 24.1582 36.2246 23.8506 36.6113 23.6396C36.998 23.4229 37.4346 23.3145 37.9209 23.3145C38.29 23.3145 38.627 23.3789 38.9316 23.5078C39.2422 23.6367 39.5088 23.8418 39.7314 24.123C39.9541 24.4043 40.127 24.7764 40.25 25.2393C40.373 25.7021 40.4346 26.2734 40.4346 26.9531V33H37.9648V26.9355C37.9648 26.5254 37.9238 26.209 37.8418 25.9863C37.7598 25.7578 37.6367 25.5996 37.4727 25.5117C37.3145 25.418 37.1094 25.3711 36.8574 25.3711C36.623 25.3711 36.415 25.4355 36.2334 25.5645C36.0518 25.6934 35.8994 25.875 35.7764 26.1094C35.6592 26.3379 35.5684 26.6074 35.5039 26.918C35.4453 27.2285 35.4189 27.5625 35.4248 27.9199ZM45.6729 31.1279C45.9014 31.1279 46.0977 31.0811 46.2617 30.9873C46.4316 30.8936 46.5605 30.7412 46.6484 30.5303C46.7363 30.3193 46.7832 30.0469 46.7891 29.7129H49.1006C49.1006 30.4277 48.9482 31.0459 48.6436 31.5674C48.3447 32.083 47.9404 32.4814 47.4307 32.7627C46.9268 33.0381 46.3555 33.1758 45.7168 33.1758C45.0781 33.1758 44.5215 33.0732 44.0469 32.8682C43.5723 32.6631 43.1797 32.3643 42.8691 31.9717C42.5645 31.5791 42.333 31.1016 42.1748 30.5391C42.0225 29.9707 41.9463 29.3203 41.9463 28.5879V27.8936C41.9463 27.1729 42.0225 26.5283 42.1748 25.96C42.333 25.3916 42.5645 24.9111 42.8691 24.5186C43.1797 24.126 43.5693 23.8271 44.0381 23.6221C44.5127 23.417 45.0693 23.3145 45.708 23.3145C46.3936 23.3145 46.9883 23.458 47.4922 23.7451C47.9961 24.0264 48.3887 24.4424 48.6699 24.9932C48.957 25.5439 49.1006 26.2236 49.1006 27.0322H46.7891C46.7832 26.6689 46.7393 26.3672 46.6572 26.127C46.5811 25.8809 46.4609 25.6934 46.2969 25.5645C46.1387 25.4297 45.9277 25.3623 45.6641 25.3623C45.3887 25.3623 45.166 25.4209 44.9961 25.5381C44.832 25.6494 44.7061 25.8135 44.6182 26.0303C44.5361 26.2412 44.4805 26.5049 44.4512 26.8213C44.4219 27.1377 44.4072 27.4951 44.4072 27.8936V28.5879C44.4072 29.0156 44.4189 29.3877 44.4424 29.7041C44.4717 30.0146 44.5273 30.2783 44.6094 30.4951C44.6973 30.7061 44.8232 30.8643 44.9873 30.9697C45.1572 31.0752 45.3857 31.1279 45.6729 31.1279ZM54.3477 33.1758C53.6973 33.1758 53.1201 33.0762 52.6162 32.877C52.1182 32.6777 51.6963 32.3906 51.3506 32.0156C51.0049 31.6348 50.7412 31.1748 50.5596 30.6357C50.3779 30.0967 50.2871 29.4814 50.2871 28.79V28.0078C50.2871 27.2344 50.375 26.5576 50.5508 25.9775C50.7266 25.3916 50.9756 24.8994 51.2979 24.501C51.6201 24.1025 52.0156 23.8066 52.4844 23.6133C52.959 23.4141 53.4951 23.3145 54.0928 23.3145C54.6904 23.3145 55.2148 23.4141 55.666 23.6133C56.123 23.8066 56.501 24.0996 56.7998 24.4922C57.0986 24.8789 57.3242 25.3594 57.4766 25.9336C57.6289 26.5078 57.7051 27.1758 57.7051 27.9375V29.0625H51.333V27.3311H55.2881V27.1113C55.2881 26.7246 55.2471 26.4023 55.165 26.1445C55.083 25.8809 54.9541 25.6846 54.7783 25.5557C54.6025 25.4268 54.3682 25.3623 54.0752 25.3623C53.8291 25.3623 53.6211 25.4121 53.4512 25.5117C53.2812 25.6113 53.1465 25.7666 53.0469 25.9775C52.9473 26.1885 52.874 26.4639 52.8271 26.8037C52.7803 27.1377 52.7568 27.5391 52.7568 28.0078V28.79C52.7568 29.2295 52.7949 29.5986 52.8711 29.8975C52.9473 30.1904 53.0586 30.4307 53.2051 30.6182C53.3574 30.7998 53.542 30.9316 53.7588 31.0137C53.9756 31.0898 54.2275 31.1279 54.5146 31.1279C54.9482 31.1279 55.3379 31.0518 55.6836 30.8994C56.0352 30.7412 56.334 30.5273 56.5801 30.2578L57.5645 31.752C57.3945 31.9746 57.1602 32.1973 56.8613 32.4199C56.5625 32.6426 56.2051 32.8242 55.7891 32.9648C55.373 33.1055 54.8926 33.1758 54.3477 33.1758Z" fill="white"/>
</g>
<defs>
<clipPath id="clip0_629_133">
<rect width="75" height="36" fill="white"/>
</clipPath>
</defs>
</svg>
