<svg width="81" height="36" viewBox="0 0 81 36" fill="none" xmlns="http://www.w3.org/2000/svg">
<rect width="81" height="36" fill="#9B111E"/>
<path d="M3.16797 1.78125H5.67773L8.57812 11.5078L11.4688 1.78125H13.6855L9.64258 16H7.50391L3.16797 1.78125ZM2.15234 1.78125H4.54492L4.91602 11.1562V16H2.15234V1.78125ZM12.5918 1.78125H14.9941V16H12.2402V11.1562L12.5918 1.78125ZM21.8496 13.5684V8.68555C21.8496 8.36654 21.8105 8.11263 21.7324 7.92383C21.6608 7.73503 21.5501 7.59831 21.4004 7.51367C21.2572 7.42253 21.0814 7.37695 20.873 7.37695C20.6387 7.37695 20.4434 7.42578 20.2871 7.52344C20.1309 7.62109 20.0137 7.76107 19.9355 7.94336C19.8639 8.12565 19.8281 8.34375 19.8281 8.59766H17.084C17.084 8.14193 17.1719 7.71224 17.3477 7.30859C17.5234 6.89844 17.7806 6.54036 18.1191 6.23438C18.4642 5.92188 18.8743 5.67773 19.3496 5.50195C19.8249 5.32617 20.3587 5.23828 20.9512 5.23828C21.6543 5.23828 22.2793 5.35872 22.8262 5.59961C23.373 5.83398 23.806 6.20833 24.125 6.72266C24.444 7.23698 24.6035 7.9043 24.6035 8.72461V13.4316C24.6035 14.0241 24.6328 14.5059 24.6914 14.877C24.7565 15.248 24.8509 15.5671 24.9746 15.834V16H22.2207C22.097 15.707 22.0026 15.3424 21.9375 14.9062C21.8789 14.4635 21.8496 14.0176 21.8496 13.5684ZM22.1816 9.54492L22.1914 11.1855H21.1855C20.9251 11.1855 20.6973 11.2279 20.502 11.3125C20.3132 11.3971 20.1536 11.5176 20.0234 11.6738C19.8932 11.8236 19.7956 11.9993 19.7305 12.2012C19.6719 12.403 19.6426 12.6178 19.6426 12.8457C19.6426 13.0996 19.6784 13.3145 19.75 13.4902C19.8216 13.666 19.929 13.7995 20.0723 13.8906C20.2155 13.9818 20.3848 14.0273 20.5801 14.0273C20.8796 14.0273 21.14 13.9655 21.3613 13.8418C21.5827 13.7181 21.7454 13.5684 21.8496 13.3926C21.9603 13.2168 21.9961 13.054 21.957 12.9043L22.582 13.9688C22.5039 14.2096 22.3965 14.4603 22.2598 14.7207C22.1296 14.9811 21.9635 15.222 21.7617 15.4434C21.5599 15.6647 21.3092 15.847 21.0098 15.9902C20.7168 16.127 20.3685 16.1953 19.9648 16.1953C19.3984 16.1953 18.8809 16.0651 18.4121 15.8047C17.9434 15.5443 17.5723 15.1797 17.2988 14.7109C17.0319 14.2422 16.8984 13.6855 16.8984 13.041C16.8984 12.5072 16.9831 12.0254 17.1523 11.5957C17.3281 11.1595 17.5885 10.7917 17.9336 10.4922C18.2786 10.1862 18.7148 9.95182 19.2422 9.78906C19.7695 9.6263 20.388 9.54492 21.0977 9.54492H22.1816ZM29.4961 1V16H26.752V1H29.4961ZM36.7715 13.4609V5.43359H39.5156V16H36.9375L36.7715 13.4609ZM37.084 11.2832L37.8457 11.2637C37.8457 11.9733 37.7773 12.6309 37.6406 13.2363C37.5039 13.8353 37.2988 14.3561 37.0254 14.7988C36.7585 15.2415 36.4167 15.5866 36 15.834C35.5898 16.0749 35.1048 16.1953 34.5449 16.1953C34.1152 16.1953 33.7181 16.1237 33.3535 15.9805C32.9954 15.8307 32.6862 15.5996 32.4258 15.2871C32.1654 14.9681 31.9603 14.5612 31.8105 14.0664C31.6673 13.5651 31.5957 12.9661 31.5957 12.2695V5.43359H34.3398V12.2891C34.3398 12.5755 34.3626 12.8229 34.4082 13.0312C34.4603 13.2331 34.5319 13.3991 34.623 13.5293C34.7207 13.6595 34.8314 13.7539 34.9551 13.8125C35.0788 13.8646 35.2188 13.8906 35.375 13.8906C35.8047 13.8906 36.1432 13.7799 36.3906 13.5586C36.6445 13.3307 36.8236 13.0215 36.9277 12.6309C37.0319 12.2337 37.084 11.7845 37.084 11.2832ZM44.2617 7.62109V16H41.5176V5.43359H44.0859L44.2617 7.62109ZM43.8809 10.3555L43.1191 10.375C43.1061 9.63281 43.1712 8.94922 43.3145 8.32422C43.4577 7.69922 43.6725 7.1556 43.959 6.69336C44.252 6.23112 44.6198 5.87305 45.0625 5.61914C45.5117 5.36523 46.0293 5.23828 46.6152 5.23828C46.9928 5.23828 47.3444 5.3099 47.6699 5.45312C48.002 5.58984 48.2852 5.80794 48.5195 6.10742C48.7604 6.40039 48.946 6.78451 49.0762 7.25977C49.2064 7.72852 49.2715 8.29167 49.2715 8.94922V16H46.5469V9.28125C46.5469 8.8125 46.5013 8.45443 46.4102 8.20703C46.319 7.95312 46.1888 7.77734 46.0195 7.67969C45.8503 7.57552 45.6419 7.52344 45.3945 7.52344C45.1341 7.52344 44.9062 7.59505 44.7109 7.73828C44.5156 7.88151 44.3561 8.08333 44.2324 8.34375C44.1152 8.59766 44.0241 8.89714 43.959 9.24219C43.9004 9.58724 43.8743 9.95833 43.8809 10.3555ZM49.0176 10.082L48.041 10.209C48.0215 9.51237 48.0801 8.86133 48.2168 8.25586C48.3535 7.65039 48.5651 7.12305 48.8516 6.67383C49.138 6.22461 49.4961 5.87305 49.9258 5.61914C50.362 5.36523 50.8665 5.23828 51.4395 5.23828C51.8691 5.23828 52.2598 5.3099 52.6113 5.45312C52.9629 5.59635 53.2624 5.82747 53.5098 6.14648C53.7637 6.45898 53.9557 6.8724 54.0859 7.38672C54.2227 7.89453 54.291 8.51953 54.291 9.26172V16H51.5469V9.27148C51.5469 8.79622 51.5013 8.43164 51.4102 8.17773C51.3255 7.92383 51.1986 7.7513 51.0293 7.66016C50.86 7.56901 50.6549 7.52344 50.4141 7.52344C50.1797 7.52344 49.9746 7.58854 49.7988 7.71875C49.6296 7.84896 49.4863 8.03125 49.3691 8.26562C49.252 8.5 49.1641 8.77018 49.1055 9.07617C49.0469 9.38216 49.0176 9.71745 49.0176 10.082ZM59.2227 5.43359V16H56.4785V5.43359H59.2227ZM56.3516 2.68945C56.3516 2.26628 56.485 1.91797 56.752 1.64453C57.0254 1.37109 57.3932 1.23438 57.8555 1.23438C58.3112 1.23438 58.6725 1.37109 58.9395 1.64453C59.2064 1.91797 59.3398 2.26628 59.3398 2.68945C59.3398 3.11263 59.2064 3.46419 58.9395 3.74414C58.6725 4.01758 58.3112 4.1543 57.8555 4.1543C57.3932 4.1543 57.0254 4.01758 56.752 3.74414C56.485 3.46419 56.3516 3.11263 56.3516 2.68945ZM66.0488 13.5684V8.68555C66.0488 8.36654 66.0098 8.11263 65.9316 7.92383C65.86 7.73503 65.7493 7.59831 65.5996 7.51367C65.4564 7.42253 65.2806 7.37695 65.0723 7.37695C64.8379 7.37695 64.6426 7.42578 64.4863 7.52344C64.3301 7.62109 64.2129 7.76107 64.1348 7.94336C64.0632 8.12565 64.0273 8.34375 64.0273 8.59766H61.2832C61.2832 8.14193 61.3711 7.71224 61.5469 7.30859C61.7227 6.89844 61.9798 6.54036 62.3184 6.23438C62.6634 5.92188 63.0736 5.67773 63.5488 5.50195C64.0241 5.32617 64.5579 5.23828 65.1504 5.23828C65.8535 5.23828 66.4785 5.35872 67.0254 5.59961C67.5723 5.83398 68.0052 6.20833 68.3242 6.72266C68.6432 7.23698 68.8027 7.9043 68.8027 8.72461V13.4316C68.8027 14.0241 68.832 14.5059 68.8906 14.877C68.9557 15.248 69.0501 15.5671 69.1738 15.834V16H66.4199C66.2962 15.707 66.2018 15.3424 66.1367 14.9062C66.0781 14.4635 66.0488 14.0176 66.0488 13.5684ZM66.3809 9.54492L66.3906 11.1855H65.3848C65.1243 11.1855 64.8965 11.2279 64.7012 11.3125C64.5124 11.3971 64.3529 11.5176 64.2227 11.6738C64.0924 11.8236 63.9948 11.9993 63.9297 12.2012C63.8711 12.403 63.8418 12.6178 63.8418 12.8457C63.8418 13.0996 63.8776 13.3145 63.9492 13.4902C64.0208 13.666 64.1283 13.7995 64.2715 13.8906C64.4147 13.9818 64.584 14.0273 64.7793 14.0273C65.0788 14.0273 65.3392 13.9655 65.5605 13.8418C65.7819 13.7181 65.9447 13.5684 66.0488 13.3926C66.1595 13.2168 66.1953 13.054 66.1562 12.9043L66.7812 13.9688C66.7031 14.2096 66.5957 14.4603 66.459 14.7207C66.3288 14.9811 66.1628 15.222 65.9609 15.4434C65.7591 15.6647 65.5085 15.847 65.209 15.9902C64.916 16.127 64.5677 16.1953 64.1641 16.1953C63.5977 16.1953 63.0801 16.0651 62.6113 15.8047C62.1426 15.5443 61.7715 15.1797 61.498 14.7109C61.2311 14.2422 61.0977 13.6855 61.0977 13.041C61.0977 12.5072 61.1823 12.0254 61.3516 11.5957C61.5273 11.1595 61.7878 10.7917 62.1328 10.4922C62.4779 10.1862 62.9141 9.95182 63.4414 9.78906C63.9688 9.6263 64.5872 9.54492 65.2969 9.54492H66.3809ZM73.5098 7.68945V16H70.7656V5.43359H73.3242L73.5098 7.68945ZM73.0996 10.3555L72.3672 10.375C72.3542 9.58073 72.429 8.86784 72.5918 8.23633C72.7611 7.60482 72.9987 7.06771 73.3047 6.625C73.6172 6.17578 73.9883 5.83398 74.418 5.59961C74.8477 5.35872 75.3327 5.23828 75.873 5.23828C76.2832 5.23828 76.6576 5.3099 76.9961 5.45312C77.3411 5.59635 77.6374 5.82422 77.8848 6.13672C78.1322 6.44922 78.3242 6.86263 78.4609 7.37695C78.5977 7.89128 78.666 8.52604 78.666 9.28125V16H75.9219V9.26172C75.9219 8.80599 75.8763 8.45443 75.7852 8.20703C75.694 7.95312 75.5573 7.77734 75.375 7.67969C75.1992 7.57552 74.9714 7.52344 74.6914 7.52344C74.431 7.52344 74.1999 7.59505 73.998 7.73828C73.7962 7.88151 73.627 8.08333 73.4902 8.34375C73.36 8.59766 73.2591 8.89714 73.1875 9.24219C73.1224 9.58724 73.0931 9.95833 73.0996 10.3555Z" fill="white"/>
<path d="M5.01367 19.7812V34H2.15234V19.7812H5.01367ZM9.4668 25.8262V28.1895H4.29102V25.8262H9.4668ZM10.0137 19.7812V22.1543H4.29102V19.7812H10.0137ZM14.418 23.4336V34H11.6738V23.4336H14.418ZM11.5469 20.6895C11.5469 20.2663 11.6803 19.918 11.9473 19.6445C12.2207 19.3711 12.5885 19.2344 13.0508 19.2344C13.5065 19.2344 13.8678 19.3711 14.1348 19.6445C14.4017 19.918 14.5352 20.2663 14.5352 20.6895C14.5352 21.1126 14.4017 21.4642 14.1348 21.7441C13.8678 22.0176 13.5065 22.1543 13.0508 22.1543C12.5885 22.1543 12.2207 22.0176 11.9473 21.7441C11.6803 21.4642 11.5469 21.1126 11.5469 20.6895ZM19.2715 25.6895V34H16.5273V23.4336H19.0859L19.2715 25.6895ZM18.8613 28.3555L18.1289 28.375C18.1159 27.5807 18.1908 26.8678 18.3535 26.2363C18.5228 25.6048 18.7604 25.0677 19.0664 24.625C19.3789 24.1758 19.75 23.834 20.1797 23.5996C20.6094 23.3587 21.0944 23.2383 21.6348 23.2383C22.0449 23.2383 22.4193 23.3099 22.7578 23.4531C23.1029 23.5964 23.3991 23.8242 23.6465 24.1367C23.8939 24.4492 24.0859 24.8626 24.2227 25.377C24.3594 25.8913 24.4277 26.526 24.4277 27.2812V34H21.6836V27.2617C21.6836 26.806 21.638 26.4544 21.5469 26.207C21.4557 25.9531 21.319 25.7773 21.1367 25.6797C20.9609 25.5755 20.7331 25.5234 20.4531 25.5234C20.1927 25.5234 19.9616 25.5951 19.7598 25.7383C19.5579 25.8815 19.3887 26.0833 19.252 26.3438C19.1217 26.5977 19.0208 26.8971 18.9492 27.2422C18.8841 27.5872 18.8548 27.9583 18.8613 28.3555ZM31.0879 31.5684V26.6855C31.0879 26.3665 31.0488 26.1126 30.9707 25.9238C30.8991 25.735 30.7884 25.5983 30.6387 25.5137C30.4954 25.4225 30.3197 25.377 30.1113 25.377C29.877 25.377 29.6816 25.4258 29.5254 25.5234C29.3691 25.6211 29.252 25.7611 29.1738 25.9434C29.1022 26.1257 29.0664 26.3438 29.0664 26.5977H26.3223C26.3223 26.1419 26.4102 25.7122 26.5859 25.3086C26.7617 24.8984 27.0189 24.5404 27.3574 24.2344C27.7025 23.9219 28.1126 23.6777 28.5879 23.502C29.0632 23.3262 29.597 23.2383 30.1895 23.2383C30.8926 23.2383 31.5176 23.3587 32.0645 23.5996C32.6113 23.834 33.0443 24.2083 33.3633 24.7227C33.6823 25.237 33.8418 25.9043 33.8418 26.7246V31.4316C33.8418 32.0241 33.8711 32.5059 33.9297 32.877C33.9948 33.248 34.0892 33.5671 34.2129 33.834V34H31.459C31.3353 33.707 31.2409 33.3424 31.1758 32.9062C31.1172 32.4635 31.0879 32.0176 31.0879 31.5684ZM31.4199 27.5449L31.4297 29.1855H30.4238C30.1634 29.1855 29.9355 29.2279 29.7402 29.3125C29.5514 29.3971 29.3919 29.5176 29.2617 29.6738C29.1315 29.8236 29.0339 29.9993 28.9688 30.2012C28.9102 30.403 28.8809 30.6178 28.8809 30.8457C28.8809 31.0996 28.9167 31.3145 28.9883 31.4902C29.0599 31.666 29.1673 31.7995 29.3105 31.8906C29.4538 31.9818 29.623 32.0273 29.8184 32.0273C30.1178 32.0273 30.3783 31.9655 30.5996 31.8418C30.821 31.7181 30.9837 31.5684 31.0879 31.3926C31.1986 31.2168 31.2344 31.054 31.1953 30.9043L31.8203 31.9688C31.7422 32.2096 31.6348 32.4603 31.498 32.7207C31.3678 32.9811 31.2018 33.222 31 33.4434C30.7982 33.6647 30.5475 33.847 30.248 33.9902C29.9551 34.127 29.6068 34.1953 29.2031 34.1953C28.6367 34.1953 28.1191 34.0651 27.6504 33.8047C27.1816 33.5443 26.8105 33.1797 26.5371 32.7109C26.2702 32.2422 26.1367 31.6855 26.1367 31.041C26.1367 30.5072 26.2214 30.0254 26.3906 29.5957C26.5664 29.1595 26.8268 28.7917 27.1719 28.4922C27.5169 28.1862 27.9531 27.9518 28.4805 27.7891C29.0078 27.6263 29.6263 27.5449 30.3359 27.5449H31.4199ZM38.5488 25.6895V34H35.8047V23.4336H38.3633L38.5488 25.6895ZM38.1387 28.3555L37.4062 28.375C37.3932 27.5807 37.4681 26.8678 37.6309 26.2363C37.8001 25.6048 38.0378 25.0677 38.3438 24.625C38.6562 24.1758 39.0273 23.834 39.457 23.5996C39.8867 23.3587 40.3717 23.2383 40.9121 23.2383C41.3223 23.2383 41.6966 23.3099 42.0352 23.4531C42.3802 23.5964 42.6764 23.8242 42.9238 24.1367C43.1712 24.4492 43.3633 24.8626 43.5 25.377C43.6367 25.8913 43.7051 26.526 43.7051 27.2812V34H40.9609V27.2617C40.9609 26.806 40.9154 26.4544 40.8242 26.207C40.7331 25.9531 40.5964 25.7773 40.4141 25.6797C40.2383 25.5755 40.0104 25.5234 39.7305 25.5234C39.4701 25.5234 39.2389 25.5951 39.0371 25.7383C38.8353 25.8815 38.666 26.0833 38.5293 26.3438C38.3991 26.5977 38.2982 26.8971 38.2266 27.2422C38.1615 27.5872 38.1322 27.9583 38.1387 28.3555ZM49.5254 31.9199C49.7793 31.9199 49.9974 31.8678 50.1797 31.7637C50.3685 31.6595 50.5117 31.4902 50.6094 31.2559C50.707 31.0215 50.7591 30.7188 50.7656 30.3477H53.334C53.334 31.1419 53.1647 31.8288 52.8262 32.4082C52.4941 32.9811 52.0449 33.4238 51.4785 33.7363C50.9186 34.0423 50.2839 34.1953 49.5742 34.1953C48.8646 34.1953 48.2461 34.0814 47.7188 33.8535C47.1914 33.6257 46.7552 33.2936 46.4102 32.8574C46.0716 32.4212 45.8145 31.8906 45.6387 31.2656C45.4694 30.6341 45.3848 29.9115 45.3848 29.0977V28.3262C45.3848 27.5254 45.4694 26.8092 45.6387 26.1777C45.8145 25.5462 46.0716 25.0124 46.4102 24.5762C46.7552 24.14 47.1882 23.8079 47.709 23.5801C48.2363 23.3522 48.8548 23.2383 49.5645 23.2383C50.3262 23.2383 50.987 23.3978 51.5469 23.7168C52.1068 24.0293 52.543 24.4915 52.8555 25.1035C53.1745 25.7155 53.334 26.4707 53.334 27.3691H50.7656C50.7591 26.9655 50.7103 26.6302 50.6191 26.3633C50.5345 26.0898 50.401 25.8815 50.2188 25.7383C50.043 25.5885 49.8086 25.5137 49.5156 25.5137C49.2096 25.5137 48.9622 25.5788 48.7734 25.709C48.5911 25.8327 48.4512 26.015 48.3535 26.2559C48.2624 26.4902 48.2005 26.7832 48.168 27.1348C48.1354 27.4863 48.1191 27.8835 48.1191 28.3262V29.0977C48.1191 29.5729 48.1322 29.9863 48.1582 30.3379C48.1908 30.6829 48.2526 30.9759 48.3438 31.2168C48.4414 31.4512 48.5814 31.627 48.7637 31.7441C48.9525 31.8613 49.2064 31.9199 49.5254 31.9199ZM59.1641 34.1953C58.4414 34.1953 57.8001 34.0846 57.2402 33.8633C56.6868 33.6419 56.2181 33.3229 55.834 32.9062C55.4499 32.4831 55.1569 31.972 54.9551 31.373C54.7533 30.7741 54.6523 30.0905 54.6523 29.3223V28.4531C54.6523 27.5938 54.75 26.8418 54.9453 26.1973C55.1406 25.5462 55.4173 24.9993 55.7754 24.5566C56.1335 24.1139 56.5729 23.7852 57.0938 23.5703C57.6211 23.349 58.2168 23.2383 58.8809 23.2383C59.5449 23.2383 60.1276 23.349 60.6289 23.5703C61.1367 23.7852 61.5566 24.1107 61.8887 24.5469C62.2207 24.9766 62.4714 25.5104 62.6406 26.1484C62.8099 26.7865 62.8945 27.5286 62.8945 28.375V29.625H55.8145V27.7012H60.209V27.457C60.209 27.0273 60.1634 26.6693 60.0723 26.3828C59.9811 26.0898 59.8379 25.8717 59.6426 25.7285C59.4473 25.5853 59.1868 25.5137 58.8613 25.5137C58.5879 25.5137 58.3568 25.569 58.168 25.6797C57.9792 25.7904 57.8294 25.9629 57.7188 26.1973C57.6081 26.4316 57.5267 26.7376 57.4746 27.1152C57.4225 27.4863 57.3965 27.9323 57.3965 28.4531V29.3223C57.3965 29.8105 57.4388 30.2207 57.5234 30.5527C57.6081 30.8783 57.7318 31.1452 57.8945 31.3535C58.0638 31.5553 58.2689 31.7018 58.5098 31.793C58.7507 31.8776 59.0306 31.9199 59.3496 31.9199C59.8314 31.9199 60.2643 31.8353 60.6484 31.666C61.0391 31.4902 61.3711 31.2526 61.6445 30.9531L62.7383 32.6133C62.5495 32.8607 62.2891 33.1081 61.957 33.3555C61.625 33.6029 61.2279 33.8047 60.7656 33.9609C60.3034 34.1172 59.7695 34.1953 59.1641 34.1953Z" fill="white"/>
</svg>
