<svg width="83" height="40" viewBox="0 0 83 40" fill="none" xmlns="http://www.w3.org/2000/svg">
<rect width="83" height="40" fill="#10B981"/>
<path d="M4.16797 3.78125H6.67773L9.57812 13.5078L12.4688 3.78125H14.6855L10.6426 18H8.50391L4.16797 3.78125ZM3.15234 3.78125H5.54492L5.91602 13.1562V18H3.15234V3.78125ZM13.5918 3.78125H15.9941V18H13.2402V13.1562L13.5918 3.78125ZM22.8496 15.5684V10.6855C22.8496 10.3665 22.8105 10.1126 22.7324 9.92383C22.6608 9.73503 22.5501 9.59831 22.4004 9.51367C22.2572 9.42253 22.0814 9.37695 21.873 9.37695C21.6387 9.37695 21.4434 9.42578 21.2871 9.52344C21.1309 9.62109 21.0137 9.76107 20.9355 9.94336C20.8639 10.1257 20.8281 10.3438 20.8281 10.5977H18.084C18.084 10.1419 18.1719 9.71224 18.3477 9.30859C18.5234 8.89844 18.7806 8.54036 19.1191 8.23438C19.4642 7.92188 19.8743 7.67773 20.3496 7.50195C20.8249 7.32617 21.3587 7.23828 21.9512 7.23828C22.6543 7.23828 23.2793 7.35872 23.8262 7.59961C24.373 7.83398 24.806 8.20833 25.125 8.72266C25.444 9.23698 25.6035 9.9043 25.6035 10.7246V15.4316C25.6035 16.0241 25.6328 16.5059 25.6914 16.877C25.7565 17.248 25.8509 17.5671 25.9746 17.834V18H23.2207C23.097 17.707 23.0026 17.3424 22.9375 16.9062C22.8789 16.4635 22.8496 16.0176 22.8496 15.5684ZM23.1816 11.5449L23.1914 13.1855H22.1855C21.9251 13.1855 21.6973 13.2279 21.502 13.3125C21.3132 13.3971 21.1536 13.5176 21.0234 13.6738C20.8932 13.8236 20.7956 13.9993 20.7305 14.2012C20.6719 14.403 20.6426 14.6178 20.6426 14.8457C20.6426 15.0996 20.6784 15.3145 20.75 15.4902C20.8216 15.666 20.929 15.7995 21.0723 15.8906C21.2155 15.9818 21.3848 16.0273 21.5801 16.0273C21.8796 16.0273 22.14 15.9655 22.3613 15.8418C22.5827 15.7181 22.7454 15.5684 22.8496 15.3926C22.9603 15.2168 22.9961 15.054 22.957 14.9043L23.582 15.9688C23.5039 16.2096 23.3965 16.4603 23.2598 16.7207C23.1296 16.9811 22.9635 17.222 22.7617 17.4434C22.5599 17.6647 22.3092 17.847 22.0098 17.9902C21.7168 18.127 21.3685 18.1953 20.9648 18.1953C20.3984 18.1953 19.8809 18.0651 19.4121 17.8047C18.9434 17.5443 18.5723 17.1797 18.2988 16.7109C18.0319 16.2422 17.8984 15.6855 17.8984 15.041C17.8984 14.5072 17.9831 14.0254 18.1523 13.5957C18.3281 13.1595 18.5885 12.7917 18.9336 12.4922C19.2786 12.1862 19.7148 11.9518 20.2422 11.7891C20.7695 11.6263 21.388 11.5449 22.0977 11.5449H23.1816ZM30.4961 3V18H27.752V3H30.4961ZM37.7715 15.4609V7.43359H40.5156V18H37.9375L37.7715 15.4609ZM38.084 13.2832L38.8457 13.2637C38.8457 13.9733 38.7773 14.6309 38.6406 15.2363C38.5039 15.8353 38.2988 16.3561 38.0254 16.7988C37.7585 17.2415 37.4167 17.5866 37 17.834C36.5898 18.0749 36.1048 18.1953 35.5449 18.1953C35.1152 18.1953 34.7181 18.1237 34.3535 17.9805C33.9954 17.8307 33.6862 17.5996 33.4258 17.2871C33.1654 16.9681 32.9603 16.5612 32.8105 16.0664C32.6673 15.5651 32.5957 14.9661 32.5957 14.2695V7.43359H35.3398V14.2891C35.3398 14.5755 35.3626 14.8229 35.4082 15.0312C35.4603 15.2331 35.5319 15.3991 35.623 15.5293C35.7207 15.6595 35.8314 15.7539 35.9551 15.8125C36.0788 15.8646 36.2188 15.8906 36.375 15.8906C36.8047 15.8906 37.1432 15.7799 37.3906 15.5586C37.6445 15.3307 37.8236 15.0215 37.9277 14.6309C38.0319 14.2337 38.084 13.7845 38.084 13.2832ZM45.2617 9.62109V18H42.5176V7.43359H45.0859L45.2617 9.62109ZM44.8809 12.3555L44.1191 12.375C44.1061 11.6328 44.1712 10.9492 44.3145 10.3242C44.4577 9.69922 44.6725 9.1556 44.959 8.69336C45.252 8.23112 45.6198 7.87305 46.0625 7.61914C46.5117 7.36523 47.0293 7.23828 47.6152 7.23828C47.9928 7.23828 48.3444 7.3099 48.6699 7.45312C49.002 7.58984 49.2852 7.80794 49.5195 8.10742C49.7604 8.40039 49.946 8.78451 50.0762 9.25977C50.2064 9.72852 50.2715 10.2917 50.2715 10.9492V18H47.5469V11.2812C47.5469 10.8125 47.5013 10.4544 47.4102 10.207C47.319 9.95312 47.1888 9.77734 47.0195 9.67969C46.8503 9.57552 46.6419 9.52344 46.3945 9.52344C46.1341 9.52344 45.9062 9.59505 45.7109 9.73828C45.5156 9.88151 45.3561 10.0833 45.2324 10.3438C45.1152 10.5977 45.0241 10.8971 44.959 11.2422C44.9004 11.5872 44.8743 11.9583 44.8809 12.3555ZM50.0176 12.082L49.041 12.209C49.0215 11.5124 49.0801 10.8613 49.2168 10.2559C49.3535 9.65039 49.5651 9.12305 49.8516 8.67383C50.138 8.22461 50.4961 7.87305 50.9258 7.61914C51.362 7.36523 51.8665 7.23828 52.4395 7.23828C52.8691 7.23828 53.2598 7.3099 53.6113 7.45312C53.9629 7.59635 54.2624 7.82747 54.5098 8.14648C54.7637 8.45898 54.9557 8.8724 55.0859 9.38672C55.2227 9.89453 55.291 10.5195 55.291 11.2617V18H52.5469V11.2715C52.5469 10.7962 52.5013 10.4316 52.4102 10.1777C52.3255 9.92383 52.1986 9.7513 52.0293 9.66016C51.86 9.56901 51.6549 9.52344 51.4141 9.52344C51.1797 9.52344 50.9746 9.58854 50.7988 9.71875C50.6296 9.84896 50.4863 10.0312 50.3691 10.2656C50.252 10.5 50.1641 10.7702 50.1055 11.0762C50.0469 11.3822 50.0176 11.7174 50.0176 12.082ZM60.2227 7.43359V18H57.4785V7.43359H60.2227ZM57.3516 4.68945C57.3516 4.26628 57.485 3.91797 57.752 3.64453C58.0254 3.37109 58.3932 3.23438 58.8555 3.23438C59.3112 3.23438 59.6725 3.37109 59.9395 3.64453C60.2064 3.91797 60.3398 4.26628 60.3398 4.68945C60.3398 5.11263 60.2064 5.46419 59.9395 5.74414C59.6725 6.01758 59.3112 6.1543 58.8555 6.1543C58.3932 6.1543 58.0254 6.01758 57.752 5.74414C57.485 5.46419 57.3516 5.11263 57.3516 4.68945ZM67.0488 15.5684V10.6855C67.0488 10.3665 67.0098 10.1126 66.9316 9.92383C66.86 9.73503 66.7493 9.59831 66.5996 9.51367C66.4564 9.42253 66.2806 9.37695 66.0723 9.37695C65.8379 9.37695 65.6426 9.42578 65.4863 9.52344C65.3301 9.62109 65.2129 9.76107 65.1348 9.94336C65.0632 10.1257 65.0273 10.3438 65.0273 10.5977H62.2832C62.2832 10.1419 62.3711 9.71224 62.5469 9.30859C62.7227 8.89844 62.9798 8.54036 63.3184 8.23438C63.6634 7.92188 64.0736 7.67773 64.5488 7.50195C65.0241 7.32617 65.5579 7.23828 66.1504 7.23828C66.8535 7.23828 67.4785 7.35872 68.0254 7.59961C68.5723 7.83398 69.0052 8.20833 69.3242 8.72266C69.6432 9.23698 69.8027 9.9043 69.8027 10.7246V15.4316C69.8027 16.0241 69.832 16.5059 69.8906 16.877C69.9557 17.248 70.0501 17.5671 70.1738 17.834V18H67.4199C67.2962 17.707 67.2018 17.3424 67.1367 16.9062C67.0781 16.4635 67.0488 16.0176 67.0488 15.5684ZM67.3809 11.5449L67.3906 13.1855H66.3848C66.1243 13.1855 65.8965 13.2279 65.7012 13.3125C65.5124 13.3971 65.3529 13.5176 65.2227 13.6738C65.0924 13.8236 64.9948 13.9993 64.9297 14.2012C64.8711 14.403 64.8418 14.6178 64.8418 14.8457C64.8418 15.0996 64.8776 15.3145 64.9492 15.4902C65.0208 15.666 65.1283 15.7995 65.2715 15.8906C65.4147 15.9818 65.584 16.0273 65.7793 16.0273C66.0788 16.0273 66.3392 15.9655 66.5605 15.8418C66.7819 15.7181 66.9447 15.5684 67.0488 15.3926C67.1595 15.2168 67.1953 15.054 67.1562 14.9043L67.7812 15.9688C67.7031 16.2096 67.5957 16.4603 67.459 16.7207C67.3288 16.9811 67.1628 17.222 66.9609 17.4434C66.7591 17.6647 66.5085 17.847 66.209 17.9902C65.916 18.127 65.5677 18.1953 65.1641 18.1953C64.5977 18.1953 64.0801 18.0651 63.6113 17.8047C63.1426 17.5443 62.7715 17.1797 62.498 16.7109C62.2311 16.2422 62.0977 15.6855 62.0977 15.041C62.0977 14.5072 62.1823 14.0254 62.3516 13.5957C62.5273 13.1595 62.7878 12.7917 63.1328 12.4922C63.4779 12.1862 63.9141 11.9518 64.4414 11.7891C64.9688 11.6263 65.5872 11.5449 66.2969 11.5449H67.3809ZM74.5098 9.68945V18H71.7656V7.43359H74.3242L74.5098 9.68945ZM74.0996 12.3555L73.3672 12.375C73.3542 11.5807 73.429 10.8678 73.5918 10.2363C73.7611 9.60482 73.9987 9.06771 74.3047 8.625C74.6172 8.17578 74.9883 7.83398 75.418 7.59961C75.8477 7.35872 76.3327 7.23828 76.873 7.23828C77.2832 7.23828 77.6576 7.3099 77.9961 7.45312C78.3411 7.59635 78.6374 7.82422 78.8848 8.13672C79.1322 8.44922 79.3242 8.86263 79.4609 9.37695C79.5977 9.89128 79.666 10.526 79.666 11.2812V18H76.9219V11.2617C76.9219 10.806 76.8763 10.4544 76.7852 10.207C76.694 9.95312 76.5573 9.77734 76.375 9.67969C76.1992 9.57552 75.9714 9.52344 75.6914 9.52344C75.431 9.52344 75.1999 9.59505 74.998 9.73828C74.7962 9.88151 74.627 10.0833 74.4902 10.3438C74.36 10.5977 74.2591 10.8971 74.1875 11.2422C74.1224 11.5872 74.0931 11.9583 74.0996 12.3555ZM6.01367 21.7812V36H3.15234V21.7812H6.01367ZM10.4668 27.8262V30.1895H5.29102V27.8262H10.4668ZM11.0137 21.7812V24.1543H5.29102V21.7812H11.0137ZM15.418 25.4336V36H12.6738V25.4336H15.418ZM12.5469 22.6895C12.5469 22.2663 12.6803 21.918 12.9473 21.6445C13.2207 21.3711 13.5885 21.2344 14.0508 21.2344C14.5065 21.2344 14.8678 21.3711 15.1348 21.6445C15.4017 21.918 15.5352 22.2663 15.5352 22.6895C15.5352 23.1126 15.4017 23.4642 15.1348 23.7441C14.8678 24.0176 14.5065 24.1543 14.0508 24.1543C13.5885 24.1543 13.2207 24.0176 12.9473 23.7441C12.6803 23.4642 12.5469 23.1126 12.5469 22.6895ZM20.2715 27.6895V36H17.5273V25.4336H20.0859L20.2715 27.6895ZM19.8613 30.3555L19.1289 30.375C19.1159 29.5807 19.1908 28.8678 19.3535 28.2363C19.5228 27.6048 19.7604 27.0677 20.0664 26.625C20.3789 26.1758 20.75 25.834 21.1797 25.5996C21.6094 25.3587 22.0944 25.2383 22.6348 25.2383C23.0449 25.2383 23.4193 25.3099 23.7578 25.4531C24.1029 25.5964 24.3991 25.8242 24.6465 26.1367C24.8939 26.4492 25.0859 26.8626 25.2227 27.377C25.3594 27.8913 25.4277 28.526 25.4277 29.2812V36H22.6836V29.2617C22.6836 28.806 22.638 28.4544 22.5469 28.207C22.4557 27.9531 22.319 27.7773 22.1367 27.6797C21.9609 27.5755 21.7331 27.5234 21.4531 27.5234C21.1927 27.5234 20.9616 27.5951 20.7598 27.7383C20.5579 27.8815 20.3887 28.0833 20.252 28.3438C20.1217 28.5977 20.0208 28.8971 19.9492 29.2422C19.8841 29.5872 19.8548 29.9583 19.8613 30.3555ZM32.0879 33.5684V28.6855C32.0879 28.3665 32.0488 28.1126 31.9707 27.9238C31.8991 27.735 31.7884 27.5983 31.6387 27.5137C31.4954 27.4225 31.3197 27.377 31.1113 27.377C30.877 27.377 30.6816 27.4258 30.5254 27.5234C30.3691 27.6211 30.252 27.7611 30.1738 27.9434C30.1022 28.1257 30.0664 28.3438 30.0664 28.5977H27.3223C27.3223 28.1419 27.4102 27.7122 27.5859 27.3086C27.7617 26.8984 28.0189 26.5404 28.3574 26.2344C28.7025 25.9219 29.1126 25.6777 29.5879 25.502C30.0632 25.3262 30.597 25.2383 31.1895 25.2383C31.8926 25.2383 32.5176 25.3587 33.0645 25.5996C33.6113 25.834 34.0443 26.2083 34.3633 26.7227C34.6823 27.237 34.8418 27.9043 34.8418 28.7246V33.4316C34.8418 34.0241 34.8711 34.5059 34.9297 34.877C34.9948 35.248 35.0892 35.5671 35.2129 35.834V36H32.459C32.3353 35.707 32.2409 35.3424 32.1758 34.9062C32.1172 34.4635 32.0879 34.0176 32.0879 33.5684ZM32.4199 29.5449L32.4297 31.1855H31.4238C31.1634 31.1855 30.9355 31.2279 30.7402 31.3125C30.5514 31.3971 30.3919 31.5176 30.2617 31.6738C30.1315 31.8236 30.0339 31.9993 29.9688 32.2012C29.9102 32.403 29.8809 32.6178 29.8809 32.8457C29.8809 33.0996 29.9167 33.3145 29.9883 33.4902C30.0599 33.666 30.1673 33.7995 30.3105 33.8906C30.4538 33.9818 30.623 34.0273 30.8184 34.0273C31.1178 34.0273 31.3783 33.9655 31.5996 33.8418C31.821 33.7181 31.9837 33.5684 32.0879 33.3926C32.1986 33.2168 32.2344 33.054 32.1953 32.9043L32.8203 33.9688C32.7422 34.2096 32.6348 34.4603 32.498 34.7207C32.3678 34.9811 32.2018 35.222 32 35.4434C31.7982 35.6647 31.5475 35.847 31.248 35.9902C30.9551 36.127 30.6068 36.1953 30.2031 36.1953C29.6367 36.1953 29.1191 36.0651 28.6504 35.8047C28.1816 35.5443 27.8105 35.1797 27.5371 34.7109C27.2702 34.2422 27.1367 33.6855 27.1367 33.041C27.1367 32.5072 27.2214 32.0254 27.3906 31.5957C27.5664 31.1595 27.8268 30.7917 28.1719 30.4922C28.5169 30.1862 28.9531 29.9518 29.4805 29.7891C30.0078 29.6263 30.6263 29.5449 31.3359 29.5449H32.4199ZM39.5488 27.6895V36H36.8047V25.4336H39.3633L39.5488 27.6895ZM39.1387 30.3555L38.4062 30.375C38.3932 29.5807 38.4681 28.8678 38.6309 28.2363C38.8001 27.6048 39.0378 27.0677 39.3438 26.625C39.6562 26.1758 40.0273 25.834 40.457 25.5996C40.8867 25.3587 41.3717 25.2383 41.9121 25.2383C42.3223 25.2383 42.6966 25.3099 43.0352 25.4531C43.3802 25.5964 43.6764 25.8242 43.9238 26.1367C44.1712 26.4492 44.3633 26.8626 44.5 27.377C44.6367 27.8913 44.7051 28.526 44.7051 29.2812V36H41.9609V29.2617C41.9609 28.806 41.9154 28.4544 41.8242 28.207C41.7331 27.9531 41.5964 27.7773 41.4141 27.6797C41.2383 27.5755 41.0104 27.5234 40.7305 27.5234C40.4701 27.5234 40.2389 27.5951 40.0371 27.7383C39.8353 27.8815 39.666 28.0833 39.5293 28.3438C39.3991 28.5977 39.2982 28.8971 39.2266 29.2422C39.1615 29.5872 39.1322 29.9583 39.1387 30.3555ZM50.5254 33.9199C50.7793 33.9199 50.9974 33.8678 51.1797 33.7637C51.3685 33.6595 51.5117 33.4902 51.6094 33.2559C51.707 33.0215 51.7591 32.7188 51.7656 32.3477H54.334C54.334 33.1419 54.1647 33.8288 53.8262 34.4082C53.4941 34.9811 53.0449 35.4238 52.4785 35.7363C51.9186 36.0423 51.2839 36.1953 50.5742 36.1953C49.8646 36.1953 49.2461 36.0814 48.7188 35.8535C48.1914 35.6257 47.7552 35.2936 47.4102 34.8574C47.0716 34.4212 46.8145 33.8906 46.6387 33.2656C46.4694 32.6341 46.3848 31.9115 46.3848 31.0977V30.3262C46.3848 29.5254 46.4694 28.8092 46.6387 28.1777C46.8145 27.5462 47.0716 27.0124 47.4102 26.5762C47.7552 26.14 48.1882 25.8079 48.709 25.5801C49.2363 25.3522 49.8548 25.2383 50.5645 25.2383C51.3262 25.2383 51.987 25.3978 52.5469 25.7168C53.1068 26.0293 53.543 26.4915 53.8555 27.1035C54.1745 27.7155 54.334 28.4707 54.334 29.3691H51.7656C51.7591 28.9655 51.7103 28.6302 51.6191 28.3633C51.5345 28.0898 51.401 27.8815 51.2188 27.7383C51.043 27.5885 50.8086 27.5137 50.5156 27.5137C50.2096 27.5137 49.9622 27.5788 49.7734 27.709C49.5911 27.8327 49.4512 28.015 49.3535 28.2559C49.2624 28.4902 49.2005 28.7832 49.168 29.1348C49.1354 29.4863 49.1191 29.8835 49.1191 30.3262V31.0977C49.1191 31.5729 49.1322 31.9863 49.1582 32.3379C49.1908 32.6829 49.2526 32.9759 49.3438 33.2168C49.4414 33.4512 49.5814 33.627 49.7637 33.7441C49.9525 33.8613 50.2064 33.9199 50.5254 33.9199ZM60.1641 36.1953C59.4414 36.1953 58.8001 36.0846 58.2402 35.8633C57.6868 35.6419 57.2181 35.3229 56.834 34.9062C56.4499 34.4831 56.1569 33.972 55.9551 33.373C55.7533 32.7741 55.6523 32.0905 55.6523 31.3223V30.4531C55.6523 29.5938 55.75 28.8418 55.9453 28.1973C56.1406 27.5462 56.4173 26.9993 56.7754 26.5566C57.1335 26.1139 57.5729 25.7852 58.0938 25.5703C58.6211 25.349 59.2168 25.2383 59.8809 25.2383C60.5449 25.2383 61.1276 25.349 61.6289 25.5703C62.1367 25.7852 62.5566 26.1107 62.8887 26.5469C63.2207 26.9766 63.4714 27.5104 63.6406 28.1484C63.8099 28.7865 63.8945 29.5286 63.8945 30.375V31.625H56.8145V29.7012H61.209V29.457C61.209 29.0273 61.1634 28.6693 61.0723 28.3828C60.9811 28.0898 60.8379 27.8717 60.6426 27.7285C60.4473 27.5853 60.1868 27.5137 59.8613 27.5137C59.5879 27.5137 59.3568 27.569 59.168 27.6797C58.9792 27.7904 58.8294 27.9629 58.7188 28.1973C58.6081 28.4316 58.5267 28.7376 58.4746 29.1152C58.4225 29.4863 58.3965 29.9323 58.3965 30.4531V31.3223C58.3965 31.8105 58.4388 32.2207 58.5234 32.5527C58.6081 32.8783 58.7318 33.1452 58.8945 33.3535C59.0638 33.5553 59.2689 33.7018 59.5098 33.793C59.7507 33.8776 60.0306 33.9199 60.3496 33.9199C60.8314 33.9199 61.2643 33.8353 61.6484 33.666C62.0391 33.4902 62.3711 33.2526 62.6445 32.9531L63.7383 34.6133C63.5495 34.8607 63.2891 35.1081 62.957 35.3555C62.625 35.6029 62.2279 35.8047 61.7656 35.9609C61.3034 36.1172 60.7695 36.1953 60.1641 36.1953Z" fill="#0F172A"/>
</svg>
