<svg width="24" height="24" viewBox="0 0 24 24" fill="none" xmlns="http://www.w3.org/2000/svg">
<g clip-path="url(#clip0_431_65)">
<rect width="24" height="24" rx="12" fill="#E0E0E0"/>
<g clip-path="url(#clip1_431_65)">
<path d="M17.313 5.998C17.555 6.214 17.786 6.443 18 6.686L16.835 7.852L16.503 7.496L16.147 7.165L17.313 5.998ZM14.66 4.438C14.968 4.545 15.268 4.672 15.557 4.816L14.914 6.336C14.747 6.248 14.573 6.168 14.394 6.097L14.021 5.957L14.66 4.438ZM11.514 4H12.487V5.648L12 5.63L11.514 5.649V4ZM9.389 4.419L10.02 5.943L9.604 6.096C9.439 6.163 9.278 6.237 9.121 6.316L8.491 4.792C8.779 4.65 9.081 4.525 9.389 4.419ZM10.105 11.248L11.15 10.203L9.687 8.737C10.339 8.273 11.138 7.999 12 7.999C14.21 7.999 16 9.79 16 12C16 14.209 14.21 15.999 12 15.999C9.79 15.999 8 14.209 8 12C8 11.187 8.242 10.433 8.658 9.801L10.105 11.248ZM6.687 5.998L7.854 7.164L7.497 7.495L7.165 7.852L6 6.686C6.214 6.443 6.445 6.214 6.687 5.998ZM4.816 8.441L6.336 9.082C6.249 9.25 6.168 9.425 6.098 9.602L5.958 9.978L4.438 9.337C4.547 9.028 4.673 8.729 4.816 8.441ZM4 11.511H5.649L5.63 11.996L5.649 12.482H4V11.511ZM4.42 14.605L5.944 13.975L6.097 14.392L6.316 14.872L4.792 15.504C4.651 15.215 4.526 14.914 4.42 14.605ZM6.55 18.132L5.862 17.445L7.165 16.141L7.497 16.497L7.853 16.828L6.55 18.132ZM9.34 19.562C9.032 19.454 8.732 19.328 8.443 19.183L9.086 17.663C9.253 17.751 9.427 17.832 9.606 17.902L9.981 18.042L9.34 19.562ZM12.486 20H11.513V18.351L11.999 18.37L12.485 18.351V20H12.486ZM14.61 19.58L13.98 18.055L14.395 17.903C14.56 17.837 14.721 17.763 14.878 17.683L15.508 19.206C15.221 19.349 14.919 19.474 14.61 19.58ZM17.313 17.994L16.146 16.829L16.502 16.498L16.834 16.142L18 17.307C17.786 17.551 17.555 17.78 17.313 17.994ZM19.184 15.553L17.663 14.91C17.75 14.742 17.832 14.569 17.902 14.392L18.042 14.014L19.562 14.656C19.453 14.963 19.327 15.264 19.184 15.553ZM20 12.482H18.351L18.37 11.996L18.351 11.511H20V12.482ZM18.056 10.018L17.903 9.602L17.684 9.119L19.208 8.49C19.349 8.778 19.474 9.08 19.58 9.387L18.056 10.018ZM12 2C17.514 2 22 6.486 22 12C22 17.514 17.514 21.999 12 21.999C6.486 21.999 2 17.514 2 12C2 6.486 6.486 2 12 2ZM12 0C5.368 0 0 5.366 0 12C0 18.631 5.367 23.999 12 23.999C18.632 23.999 24 18.633 24 12C24 5.368 18.633 0 12 0Z" fill="#2C6E63"/>
</g>
</g>
<defs>
<clipPath id="clip0_431_65">
<rect width="24" height="24" rx="12" fill="white"/>
</clipPath>
<clipPath id="clip1_431_65">
<rect width="24" height="24" fill="white"/>
</clipPath>
</defs>
</svg>
